<?xml version="1.0" standalone="no"?><!-- Generator: Gravit.io --><svg xmlns="http://www.w3.org/2000/svg" xmlns:xlink="http://www.w3.org/1999/xlink" style="isolation:isolate" viewBox="0 0 500 340" width="500" height="340"><g><g><g><path d=" M 184.314 61.786 C 184.383 61.601 184.452 61.417 184.52 61.235 C 192.644 39.428 194.516 10 194.516 10 C 194.516 10 165.745 16.462 145.481 27.905 C 145.312 28 145.142 28.097 144.969 28.195 L 184.314 61.786 Z " fill="rgb(0,0,0)"/><path d=" M 149.114 63.178 C 142.133 57.218 131.604 58.048 125.644 65.029 C 119.684 72.01 120.514 82.538 127.495 88.499 C 134.476 94.459 145.005 93.628 150.965 86.647 C 156.925 79.666 156.095 69.138 149.114 63.178 Z " fill="rgb(0,0,0)"/><path d=" M 101.194 126.081 C 101.194 126.081 105.531 121.683 101.857 118.535 L 101.857 118.535 C 101.856 118.534 101.854 118.533 101.853 118.532 C 101.852 118.531 101.851 118.53 101.85 118.529 L 101.85 118.529 C 98.164 115.394 94.501 120.367 94.501 120.367 C 87.755 126.369 42.567 187.965 42.567 187.965 L 42.573 187.971 C 42.573 187.971 96.324 133.685 101.194 126.081" fill="rgb(0,0,0)"/><path d=" M 124.191 92.369 C 120.766 89.445 118.312 85.48 117.225 81.11 C 116.172 76.877 116.413 72.354 117.93 68.263 C 119.512 63.991 122.465 60.265 126.258 57.743 C 129.913 55.311 134.289 54.043 138.677 54.114 C 143.127 54.186 147.504 55.643 151.101 58.267 C 154.754 60.931 157.521 64.714 158.935 69.009 C 160.297 73.146 160.39 77.669 159.19 81.856 C 157.933 86.244 155.265 90.179 151.667 92.985 C 148.202 95.687 143.931 97.277 139.547 97.529 C 135.118 97.783 130.653 96.667 126.88 94.332 C 125.935 93.748 125.035 93.09 124.191 92.369 Z  M 182.129 67.425 C 181.609 66.98 181.087 66.535 180.566 66.09 L 176.397 62.53 C 174.399 60.825 172.402 59.119 170.404 57.414 C 168.059 55.412 165.714 53.41 163.369 51.408 C 160.938 49.332 158.506 47.256 156.075 45.18 C 153.818 43.252 151.56 41.325 149.302 39.398 C 147.48 37.842 145.657 36.285 143.834 34.729 C 142.707 33.767 141.58 32.804 140.452 31.842 C 140.311 31.721 140.169 31.599 140.027 31.478 C 139.963 31.424 139.869 31.305 139.79 31.276 C 139.614 31.212 139.36 31.466 139.192 31.567 C 138.627 31.908 138.064 32.252 137.502 32.598 C 135.068 34.099 132.667 35.654 130.306 37.268 C 127.628 39.098 125.001 41.003 122.433 42.984 C 119.587 45.18 116.812 47.469 114.118 49.849 C 111.169 52.453 108.317 55.165 105.569 57.979 C 102.586 61.033 99.726 64.208 96.997 67.491 C 94.057 71.028 91.269 74.69 88.639 78.463 C 85.79 82.549 83.126 86.763 80.648 91.084 C 77.971 95.754 75.51 100.548 73.263 105.439 C 70.829 110.736 68.643 116.148 66.693 121.642 C 65.657 124.564 64.686 127.509 63.78 130.474 C 63.549 131.23 63.322 131.987 63.099 132.745 C 63.039 132.951 62.978 133.158 62.918 133.364 C 62.888 133.47 62.735 133.767 62.775 133.861 C 62.78 133.874 62.804 133.879 62.811 133.892 C 62.848 133.965 62.99 134.045 63.052 134.098 C 63.199 134.223 63.345 134.348 63.491 134.473 C 65.664 136.328 67.837 138.183 70.01 140.038 C 70.531 140.483 71.052 140.928 71.573 141.373 C 76.111 135.434 80.668 129.504 85.399 123.717 C 86.894 121.89 88.399 120.063 90.003 118.329 C 91.427 116.789 92.825 115.2 94.667 114.144 C 97.559 112.485 101.056 112.416 103.876 114.274 C 106.693 116.13 108.328 119.323 107.874 122.702 C 107.672 124.207 107.097 125.643 106.314 126.936 C 105.805 127.775 105.164 128.497 104.589 129.284 C 103.374 130.949 102.005 132.507 100.648 134.056 C 95.952 139.419 91.05 144.605 86.146 149.777 C 85.441 150.521 84.735 151.264 84.028 152.006 C 86.095 153.772 88.162 155.536 90.229 157.301 C 90.792 157.782 91.355 158.262 91.918 158.743 C 92.11 158.908 92.303 159.072 92.496 159.237 C 92.577 159.306 92.696 159.456 92.798 159.494 C 92.813 159.5 92.824 159.526 92.84 159.531 C 92.943 159.558 93.322 159.305 93.426 159.256 C 93.659 159.146 93.892 159.035 94.124 158.925 C 94.933 158.54 95.739 158.15 96.543 157.755 C 98.159 156.961 99.765 156.146 101.36 155.311 C 107.374 152.162 113.235 148.719 118.892 144.966 C 124.049 141.544 129.037 137.865 133.813 133.927 C 138.181 130.326 142.372 126.509 146.354 122.486 C 149.998 118.803 153.467 114.947 156.741 110.931 C 159.728 107.267 162.553 103.471 165.203 99.556 C 167.596 96.022 169.846 92.392 171.951 88.68 C 173.829 85.368 175.59 81.991 177.238 78.559 C 178.676 75.563 180.027 72.525 181.3 69.455 C 181.58 68.78 181.857 68.103 182.129 67.425" fill="rgb(0,0,0)"/><path d=" M 71.357 95.74 C 70.471 97.354 69.643 99.001 68.831 100.653 C 66.892 104.596 65.091 108.61 63.46 112.69 C 62.469 115.167 61.542 117.671 60.704 120.204 C 60.494 120.837 60.29 121.471 60.092 122.108 C 59.996 122.418 59.901 122.728 59.808 123.038 C 59.717 123.338 59.674 123.755 59.517 124.024 C 59.406 124.214 59.536 124.091 59.405 124.139 C 59.227 124.205 58.96 124.184 58.771 124.208 C 58.359 124.262 57.95 124.328 57.542 124.403 C 56.175 124.654 54.825 125 53.495 125.406 C 51.493 126.016 49.534 126.769 47.625 127.627 C 45.105 128.76 42.67 130.08 40.327 131.543 C 37.417 133.359 34.648 135.397 32.02 137.601 C 28.83 140.276 25.849 143.194 23.062 146.285 C 19.706 150.006 16.632 153.977 13.804 158.111 C 13.04 159.228 12.294 160.357 11.565 161.497 C 11.506 160.957 11.499 160.41 11.5 159.868 C 11.502 158.343 11.631 156.818 11.837 155.307 C 12.162 152.917 12.69 150.556 13.366 148.241 C 14.289 145.08 15.494 142.003 16.908 139.029 C 18.703 135.258 20.837 131.651 23.213 128.218 C 26.181 123.931 29.528 119.912 33.125 116.14 C 35.045 114.127 37.033 112.169 39.074 110.278 C 40.982 108.51 43.013 106.871 45.122 105.35 C 48.287 103.066 51.655 101.046 55.21 99.432 C 59.252 97.596 63.565 96.282 67.996 95.872 C 69.113 95.769 70.236 95.723 71.357 95.74 Z " fill="rgb(0,0,0)"/><path d=" M 129.145 145.078 C 127.69 146.206 126.193 147.282 124.688 148.343 C 121.098 150.876 117.416 153.284 113.642 155.535 C 111.351 156.901 109.024 158.209 106.654 159.435 C 106.061 159.741 105.467 160.043 104.869 160.338 C 104.578 160.481 104.287 160.624 103.995 160.764 C 103.713 160.901 103.308 161.009 103.067 161.206 C 102.897 161.346 102.998 161.197 102.97 161.334 C 102.933 161.521 102.996 161.781 103.002 161.972 C 103.013 162.387 103.012 162.801 103.002 163.216 C 102.968 164.606 102.839 165.993 102.646 167.369 C 102.357 169.443 101.921 171.496 101.372 173.516 C 100.649 176.182 99.727 178.793 98.65 181.337 C 97.312 184.496 95.733 187.55 93.968 190.492 C 91.827 194.061 89.412 197.463 86.797 200.7 C 83.648 204.598 80.208 208.257 76.568 211.698 C 75.585 212.628 74.587 213.541 73.575 214.44 C 74.118 214.413 74.659 214.334 75.195 214.249 C 76.7 214.008 78.186 213.641 79.645 213.201 C 81.955 212.505 84.205 211.614 86.385 210.583 C 89.363 209.175 92.212 207.503 94.927 205.64 C 98.371 203.276 101.598 200.603 104.616 197.718 C 108.385 194.115 111.83 190.18 114.991 186.035 C 116.678 183.824 118.3 181.553 119.848 179.24 C 121.295 177.079 122.595 174.817 123.767 172.495 C 125.526 169.011 126.993 165.368 128.03 161.603 C 129.209 157.324 129.831 152.859 129.542 148.418 C 129.469 147.298 129.338 146.183 129.145 145.078 Z " fill="rgb(0,0,0)"/><path d=" M 84.775 176.3 C 86.517 174.047 88.133 171.691 89.581 169.237 C 90.278 168.058 90.95 166.856 91.531 165.614 C 91.545 165.584 91.614 165.483 91.606 165.448 C 91.597 165.404 91.455 165.319 91.422 165.291 C 91.267 165.158 91.111 165.025 90.956 164.893 C 90.023 164.096 89.089 163.299 88.156 162.503 L 87.56 161.994 C 87.208 162.823 86.749 163.614 86.285 164.383 C 84.974 166.557 83.429 168.589 81.764 170.503 C 79.13 173.529 76.167 176.264 73.01 178.736 C 68.628 182.168 63.862 185.096 58.896 187.6 C 52.352 190.901 45.453 193.471 38.411 195.486 C 37.431 195.766 36.447 196.036 35.46 196.295 L 35.46 196.296 C 35.562 195.281 35.674 194.267 35.797 193.255 C 36.683 185.985 38.14 178.768 40.374 171.787 C 42.069 166.49 44.214 161.324 46.915 156.458 C 48.862 152.953 51.098 149.597 53.674 146.522 C 55.303 144.577 57.068 142.733 59.01 141.097 C 59.697 140.518 60.406 139.941 61.17 139.463 C 60.971 139.293 60.772 139.124 60.574 138.954 C 59.641 138.157 58.707 137.36 57.774 136.564 C 57.618 136.431 57.463 136.298 57.308 136.166 C 57.275 136.138 57.168 136.011 57.123 136.008 C 57.088 136.006 56.999 136.091 56.972 136.109 C 55.836 136.877 54.754 137.729 53.698 138.602 C 51.502 140.418 49.429 142.383 47.477 144.457 C 44.795 147.305 42.342 150.369 40.158 153.614 C 37.523 157.526 35.283 161.705 33.516 166.078 C 31.632 170.74 29.842 175.606 28.529 180.455 C 27.503 184.244 26.881 188.039 26.074 191.881 C 25.496 194.625 25.146 197.438 24.78 200.219 C 24.536 202.079 24.349 203.953 24.312 205.831 C 24.291 206.932 24.309 208.051 24.495 209.139 C 24.495 209.139 24.495 209.139 24.495 209.139 C 25.6 209.152 26.707 208.994 27.791 208.801 C 29.64 208.47 31.461 207.992 33.261 207.458 C 35.95 206.661 38.673 205.874 41.292 204.874 C 44.96 203.474 48.611 202.265 52.193 200.657 C 56.775 198.601 61.3 196.07 65.61 193.478 C 69.652 191.047 73.428 188.179 76.878 184.965 C 79.74 182.298 82.382 179.395 84.775 176.3 Z " fill="rgb(0,0,0)"/></g></g><path d=" M 200.6 230 C 191.3 230 186.2 235 186.2 244.4 L 186.2 268 C 186.2 269.9 187.1 271.1 188.9 271.7 L 212.6 279.5 L 212.6 292.8 C 212.6 295.5 211.2 296.8 208.6 296.8 L 203.8 296.8 C 201.3 296.8 199.8 295.5 199.8 292.8 L 199.8 285.1 C 199.8 284 199.3 283.5 198.2 283.5 L 187.8 283.5 C 186.8 283.5 186.2 284 186.2 285.1 L 186.2 295.6 C 186.2 305 191.3 310 200.6 310 L 211.8 310 C 221.2 310 226.2 305 226.2 295.6 L 226.2 272.5 C 226.2 270.6 225.3 269.5 223.6 268.8 L 199.8 261 L 199.8 247.2 C 199.8 244.6 201.3 243.2 203.8 243.2 L 208.6 243.2 C 211.3 243.2 212.6 244.6 212.6 247.2 L 212.6 255 C 212.6 256 213.2 256.6 214.2 256.6 L 224.6 256.6 C 225.7 256.6 226.2 256 226.2 255 L 226.2 244.4 C 226.2 235 221.2 230 211.8 230 L 200.6 230 Z  M 235.8 230 C 234.8 230 234.2 230.6 234.2 231.6 L 234.2 241.6 C 234.2 242.6 234.8 243.2 235.8 243.2 L 247.4 243.2 L 247.4 308.4 C 247.4 309.5 248 310 249 310 L 259.4 310 C 260.5 310 261 309.5 261 308.4 L 261 243.2 L 272.6 243.2 C 273.7 243.2 274.2 242.6 274.2 241.6 L 274.2 231.6 C 274.2 230.6 273.7 230 272.6 230 L 235.8 230 Z  M 311 230 C 309.9 230 309 230.9 309 232 L 309 292.8 C 309 295.5 307.6 296.8 305 296.8 L 299.8 296.8 C 297.2 296.8 295.8 295.5 295.8 292.8 L 295.8 232 C 295.8 230.9 294.9 230 293.8 230 L 284.2 230 C 283.1 230 282.2 230.9 282.2 232 L 282.2 295.6 C 282.2 305 287.2 310 296.6 310 L 307.8 310 C 317.2 310 322.2 305 322.2 295.6 L 322.2 232 C 322.2 230.9 321.3 230 320.2 230 L 311 230 Z  M 332.2 308.4 C 332.2 309.5 332.7 310 333.8 310 L 357.8 310 C 367.2 310 372.2 305 372.2 295.6 L 372.2 244.5 C 372.2 235.1 367.2 230 357.8 230 L 333.8 230 C 332.7 230 332.2 230.6 332.2 231.6 L 332.2 308.4 Z  M 345.8 296.8 L 345.8 243.2 L 355 243.2 C 357.6 243.2 359 244.6 359 247.3 L 359 292.8 C 359 295.5 357.6 296.8 355 296.8 L 345.8 296.8 Z  M 383.8 230 C 382.7 230 382.2 230.6 382.2 231.6 L 382.2 308.4 C 382.2 309.4 382.7 310 383.8 310 L 394.2 310 C 395.2 310 395.8 309.4 395.8 308.4 L 395.8 231.6 C 395.8 230.6 395.2 230 394.2 230 L 383.8 230 Z  M 405.8 295.6 C 405.8 305 410.8 310 420.2 310 L 431.4 310 C 440.8 310 445.8 305 445.8 295.6 L 445.8 244.4 C 445.8 235 440.8 230 431.4 230 L 420.2 230 C 410.8 230 405.8 235 405.8 244.4 L 405.8 295.6 Z  M 423.1 297.1 C 420.5 297.1 419.1 295.8 419.1 293.1 L 419.1 246.9 C 419.1 244.3 420.5 242.9 423.1 242.9 L 428.9 242.9 C 431.5 242.9 432.9 244.3 432.9 246.9 L 432.9 293.1 C 432.9 295.8 431.5 297.1 428.9 297.1 L 423.1 297.1 Z  M 177.1 167.4 L 164.3 167.4 L 164.3 135.6 C 164.3 134.6 163.7 134 162.7 134 L 152.4 134 C 151.2 134 150.7 134.6 150.7 135.6 L 150.7 212.4 C 150.7 213.4 151.2 214 152.4 214 L 162.7 214 C 163.7 214 164.3 213.4 164.3 212.4 L 164.3 180.6 L 177.1 180.6 L 177.1 212.4 C 177.1 213.4 177.7 214 178.7 214 L 189 214 C 190.2 214 190.7 213.4 190.7 212.4 L 190.7 135.6 C 190.7 134.6 190.2 134 189 134 L 178.7 134 C 177.7 134 177.1 134.6 177.1 135.6 L 177.1 167.4 Z  M 248.9 214 C 250.1 214 250.5 213.4 250.3 212.3 L 233.7 135.4 C 233.5 134.4 232.9 134 232 134 L 218.1 134 C 217.2 134 216.6 134.4 216.4 135.4 L 199.8 212.3 C 199.5 213.4 200 214 201.1 214 L 211.8 214 C 212.7 214 213.2 213.5 213.4 212.6 L 216.1 198 L 233.9 198 L 236.7 212.6 C 236.9 213.5 237.4 214 238.3 214 L 248.9 214 Z  M 231.4 186.4 L 218.6 186.4 L 225 151.5 L 231.4 186.4 Z  M 299.4 148.4 C 299.4 139 294.3 134 285 134 L 273.8 134 C 264.4 134 259.3 139 259.3 148.4 L 259.3 199.6 C 259.3 209 264.4 214 273.8 214 L 285 214 C 294.3 214 299.4 209 299.4 199.6 L 299.4 188.8 C 299.4 187.8 298.8 187.2 297.8 187.2 L 287.8 187.2 C 286.7 187.2 286.2 187.8 286.2 188.8 L 286.2 196.8 C 286.2 199.5 284.8 200.8 282.2 200.8 L 277 200.8 C 274.4 200.8 273 199.5 273 196.8 L 273 151.2 C 273 148.6 274.3 147.2 277 147.2 L 282.2 147.2 C 284.8 147.2 286.2 148.6 286.2 151.2 L 286.2 159.2 C 286.2 160.2 286.7 160.8 287.8 160.8 L 297.8 160.8 C 298.8 160.8 299.4 160.2 299.4 159.2 L 299.4 148.4 Z  M 352.2 214 C 353.8 214 354.4 213 353.7 211.7 L 335.6 171.3 L 352.6 136.4 C 353.3 135 352.7 134 351.2 134 L 340.7 134 C 339.6 134 338.9 134.5 338.4 135.5 L 323 167 L 323 136 C 323 134.7 322.3 134 321 134 L 311.4 134 C 310.1 134 309.4 134.7 309.4 136 L 309.4 212 C 309.4 213.3 310.1 214 311.4 214 L 321 214 C 322.3 214 323 213.3 323 212 L 323 189.9 L 326.7 182.8 L 339.3 212.5 C 339.7 213.5 340.4 214 341.6 214 L 352.2 214 Z  M 364.6 134 C 363.5 134 363 134.6 363 135.6 L 363 212.4 C 363 213.4 363.5 214 364.6 214 L 375 214 C 376 214 376.6 213.4 376.6 212.4 L 376.6 135.6 C 376.6 134.6 376 134 375 134 L 364.6 134 Z  M 417.3 134 C 416.2 134 415.7 134.6 415.7 135.6 L 415.7 177.8 L 415.1 177.8 L 399.9 135.3 C 399.6 134.4 399 134 398.1 134 L 388.2 134 C 387.2 134 386.6 134.6 386.6 135.6 L 386.6 212.4 C 386.6 213.4 387.2 214 388.2 214 L 398.6 214 C 399.7 214 400.2 213.4 400.2 212.4 L 400.2 170 L 400.7 170 L 416 212.7 C 416.3 213.6 416.9 214 417.8 214 L 427.7 214 C 428.7 214 429.3 213.4 429.3 212.4 L 429.3 135.6 C 429.3 134.6 428.7 134 427.7 134 L 417.3 134 Z  M 439.3 199.6 C 439.3 209 444.3 214 453.7 214 L 466.9 214 C 476.2 214 481.3 209 481.3 199.6 L 481.3 171.8 C 481.3 170.7 480.7 170.2 479.7 170.2 L 462.9 170.2 C 461.8 170.2 461.3 170.7 461.3 171.8 L 461.3 181.8 C 461.3 182.8 461.8 183.4 462.9 183.4 L 468.1 183.4 L 468.1 196.8 C 468.1 199.5 466.7 200.8 464.1 200.8 L 456.9 200.8 C 454.3 200.8 452.9 199.5 452.9 196.8 L 452.9 151.2 C 452.9 148.6 454.2 147.2 456.9 147.2 L 464.1 147.2 C 466.7 147.2 468.1 148.6 468.1 151.2 L 468.1 158.8 C 468.1 159.8 468.6 160.4 469.7 160.4 L 479.7 160.4 C 480.7 160.4 481.3 159.8 481.3 158.8 L 481.3 148.4 C 481.3 139 476.2 134 466.9 134 L 453.7 134 C 444.3 134 439.3 139 439.3 148.4 L 439.3 199.6 Z " fill-rule="evenodd" fill="rgb(0,0,0)"/></g></svg>